<?xml version="1.0" encoding="iso-8859-1"?>
<!-- Generator: Adobe Illustrator 19.0.0, SVG Export Plug-In . SVG Version: 6.00 Build 0)  -->
<svg version="1.1" id="Layer_1" xmlns="http://www.w3.org/2000/svg" xmlns:xlink="http://www.w3.org/1999/xlink" x="0px" y="0px"
	 viewBox="0 0 512.003 512.003" style="enable-background:new 0 0 512.003 512.003;" xml:space="preserve">
<g>
	<g>
		<path d="M501.802,409.389h-12.918c3.364-5.887,5.298-12.693,5.298-19.946v-36.572c0-59.508-25.467-116.36-69.87-155.978
			c-27.083-24.164-59.74-40.582-94.508-48.195c-0.38-0.311-0.778-0.606-1.212-0.866c-24.587-14.733-51.529-26.561-73.916-32.448
			c-12.584-3.309-23.723-4.819-33.383-4.546l-20.36-20.359c6.637-12.946,4.542-29.302-6.24-40.084
			c-13.412-13.411-35.236-13.411-48.649,0c-5.409,5.409-8.757,12.244-9.769,19.512c-7.268,1.012-14.103,4.36-19.512,9.769
			c-6.497,6.498-10.075,15.136-10.075,24.325s3.578,17.828,10.075,24.324c10.782,10.782,27.136,12.878,40.083,6.24l20.394,20.394
			c-0.042,1.454-0.055,2.932-0.015,4.453c-0.593-0.243-1.186-0.49-1.778-0.727c-18.748-7.546-41.309-14.327-60.836-13.767
			l-20.384-20.384c6.639-12.946,4.542-29.302-6.24-40.084c-13.412-13.411-35.236-13.412-48.649,0
			c-5.409,5.409-8.757,12.243-9.769,19.512c-7.268,1.012-14.103,4.36-19.512,9.769c-13.411,13.412-13.411,35.236,0,48.649
			c10.782,10.782,27.136,12.878,40.084,6.239l20.384,20.385c-0.531,18.56,5.568,39.861,12.654,58.023
			c-9.815,21.631-14.805,44.7-14.805,68.614c0,38.789,19.452,73.113,49.107,93.751h-43.36c-5.633,0-10.2,4.566-10.2,10.2
			c0,28.715,23.361,52.077,52.077,52.077h343.927c28.715,0,52.077-23.361,52.077-52.077
			C512.002,413.956,507.435,409.389,501.802,409.389z M203.633,137.263c10.351-10.352,38.548-7.09,72.392,6.788
			c-4.868,0.211-9.744,0.577-14.617,1.134l-45.599,5.211c-6.093,0.697-12.127,1.745-18.084,3.099
			C198.149,147.271,199.728,141.168,203.633,137.263z M165.219,114.084c-3.951-3.951-10.349-3.988-14.345-0.078
			c-5.458,5.338-14.287,5.289-19.684-0.107c-2.645-2.644-4.101-6.161-4.101-9.9s1.456-7.255,4.101-9.9
			c3.491-3.491,8.448-4.874,13.251-3.697c3.466,0.849,7.117-0.174,9.638-2.695c2.521-2.521,3.543-6.175,2.696-9.638
			c-1.177-4.806,0.205-9.761,3.696-13.252c5.46-5.459,14.342-5.459,19.8,0c5.398,5.398,5.446,14.228,0.107,19.685
			c-3.909,3.995-3.874,10.392,0.078,14.345l17.525,17.525c-3.274,1.747-6.203,3.897-8.771,6.465
			c-2.562,2.562-4.704,5.502-6.449,8.787L165.219,114.084z M96.93,171.317c4.068-4.068,10.911-6.075,19.948-6.075
			c13.027,0,30.607,4.175,50.957,12.366c34.177,13.756,65.371,34.264,78.52,47.415c26.39,26.39,26.39,69.33,0,95.721
			c-12.784,12.784-29.781,19.825-47.859,19.825s-35.076-7.041-47.859-19.825c-13.15-13.149-33.659-44.343-47.416-78.521
			C89.349,207.756,86.997,181.25,96.93,171.317z M82.505,156.891c-2.627,2.627-4.763,5.571-6.466,8.771l-17.525-17.523
			c-3.952-3.952-10.349-3.987-14.345-0.078c-5.457,5.337-14.287,5.29-19.684-0.107c-5.459-5.459-5.459-14.341,0-19.799
			c3.491-3.491,8.445-4.873,13.252-3.697c3.464,0.849,7.117-0.174,9.638-2.695c2.52-2.521,3.542-6.175,2.695-9.638
			c-1.177-4.806,0.205-9.761,3.696-13.252c5.46-5.46,14.342-5.459,19.8,0c5.398,5.398,5.446,14.227,0.107,19.684
			c-3.909,3.995-3.874,10.392,0.079,14.345l17.524,17.525C88.077,152.128,85.133,154.262,82.505,156.891z M88.776,315.638
			c0-14.476,2.087-28.595,6.2-42.19c12.511,25.012,28.042,48.526,41.235,61.719c17.172,17.171,39.728,25.757,62.284,25.757
			s45.112-8.586,62.284-25.757c34.343-34.343,34.343-90.224,0-124.569c-12.051-12.051-32.714-26.053-55.264-37.923
			c4.167-0.847,8.372-1.528,12.611-2.012l45.599-5.211c53.351-6.098,106.935,10.909,147.006,46.662
			c40.071,35.751,63.052,87.056,63.052,140.757v36.572c0,10.998-8.948,19.946-19.946,19.946H182.526
			C130.832,409.389,88.776,367.333,88.776,315.638z M459.926,451.267H115.999c-13.9,0-25.737-9-29.993-21.478h403.913
			C485.663,442.266,473.826,451.267,459.926,451.267z"/>
	</g>
</g>
<g>
	<g>
		<path d="M411.92,229.873c-3.901-4.065-10.358-4.199-14.421-0.297c-4.065,3.9-4.197,10.357-0.298,14.421
			c29.275,30.505,45.397,70.632,45.397,112.987c0,5.633,4.566,10.2,10.2,10.2c5.633,0,10.2-4.566,10.2-10.2
			C462.997,309.337,444.857,264.195,411.92,229.873z"/>
	</g>
</g>
<g>
	<g>
		<path d="M387.021,208.181c-1.988-1.441-4.037-2.865-6.089-4.231c-4.69-3.122-11.021-1.851-14.142,2.839
			c-3.122,4.689-1.85,11.021,2.839,14.142c1.828,1.217,3.65,2.484,5.419,3.766c1.808,1.312,3.903,1.942,5.978,1.942
			c3.158,0,6.271-1.462,8.266-4.213C392.598,217.865,391.581,211.488,387.021,208.181z"/>
	</g>
</g>
<g>
</g>
<g>
</g>
<g>
</g>
<g>
</g>
<g>
</g>
<g>
</g>
<g>
</g>
<g>
</g>
<g>
</g>
<g>
</g>
<g>
</g>
<g>
</g>
<g>
</g>
<g>
</g>
<g>
</g>
</svg>
