<svg id="Layer_1" data-name="Layer 1" xmlns="http://www.w3.org/2000/svg" viewBox="0 0 179.92 160.01"><defs><style>.cls-1{fill:#fff;}.cls-1,.cls-2{stroke:#000;stroke-linecap:round;stroke-linejoin:round;stroke-width:5px;}.cls-2{fill:none;}</style></defs><g id="g5439"><g id="g3915-6-1-6-3-8-9-4"><path id="path3894-6-1-0-5-5-2-9" class="cls-1" d="M175.91,127.44c6.93.91,10.11,7.88,8.88,16.78-1.34,9.69-14.83,30.24-25,34.74-7.17,3.18-14.19,4.17-17.16-4.15" transform="translate(-7.63 -23.77)"/><path id="path3112-2-8-6-8-2-9-8" class="cls-1" d="M176.28,54.56C143.68,47.49,142.75,78,143,93.12,118.84,75.46,101.25,49,90,35.61,73.52,15.88,45.17,31.14,59,47c8.38,9.61,18.4,26.11,25.79,37.09-19.84-12.84-28-16.4-37-21.94C28.48,50.31,2.8,72.43,23.49,84.84c13.83,8.3,27.92,17.89,38.72,26.93,4.4,3.69-28.6-3.18-32.93-4.62-8.94-3-25.19,4.29-16.83,15.77,3,4.13,50.14,20.31,64.36,33.36a80.86,80.86,0,0,0,15.76,11.25c16,8.49,31.9,11.58,50.06,6.85,10.6-2.76,25.65-22.81,29.66-33.79,6.16-16.87-3.83-43.37-.3-49.86,9.1-16.71,15.09-33.82,4.29-36.17Z" transform="translate(-7.63 -23.77)"/><path id="path3882-6-1-33-9-9-7-9" d="M80.38,84.14a22,22,0,0,1,5,4.24c7,8.21,8.23,10.43,14.13,18.57C98,103.08,95.87,94.32,86.12,81.6Z" transform="translate(-7.63 -23.77)"/><path id="path3884-6-1-2-9-6-6-0" d="M63.86,109.89c-1.54,1.89-2.93,3.91-4.94,5.33a9.65,9.65,0,0,1,6.33,2.5c5.8,5.22,12.42,11,16.3,14.39-3.26-7.17-10.49-16.18-17.69-22.22Z" transform="translate(-7.63 -23.77)"/><path id="path3886-8-5-4-3-7-0-8" class="cls-2" d="M122.33,151c5.67,2.66,8.29,4.88,20.68,8.52" transform="translate(-7.63 -23.77)"/><path id="path3888-4-4-9-8-4-7-4" class="cls-2" d="M125.7,133.56c7.74,5.6,13,10.25,25.25,17.53" transform="translate(-7.63 -23.77)"/><path id="path3890-1-8-5-1-8-9-7" class="cls-2" d="M144.84,126.7c4.51,4.37,7.58,8,15.29,14" transform="translate(-7.63 -23.77)"/></g></g></svg>