<svg id="Layer_1" data-name="Layer 1" xmlns="http://www.w3.org/2000/svg" viewBox="0 0 179.92 160.01"><defs><style>.cls-1{fill:#fff;}.cls-1,.cls-2{stroke:#000;stroke-linecap:round;stroke-linejoin:round;stroke-width:5px;}.cls-2{fill:none;}</style></defs><g id="g5439"><g id="g3915-6-1-6-3-8-9-4"><path id="path3894-6-1-0-5-5-2-9" class="cls-1" d="M52.52,174.81c-3,8.32-10,7.33-17.16,4.15-10.14-4.5-23.64-25.05-25-34.74-1.23-8.9,1.95-15.87,8.88-16.78" transform="translate(-7.63 -23.77)"/><path id="path3112-2-8-6-8-2-9-8" class="cls-1" d="M18.9,54.56C8.09,56.91,14.09,74,23.19,90.73c3.53,6.49-6.47,33-.31,49.86,4,11,19.06,31,29.67,33.79,18.15,4.73,34.11,1.64,50.05-6.85a80.26,80.26,0,0,0,15.76-11.25c14.23-13.05,61.36-29.23,64.37-33.36,8.36-11.48-7.9-18.76-16.83-15.77-4.33,1.44-37.34,8.31-32.94,4.62,10.8-9,24.9-18.63,38.72-26.93,20.69-12.41-5-34.53-24.24-22.71-9,5.54-17.2,9.1-37,21.94,7.39-11,17.4-27.48,25.79-37.09,13.82-15.84-14.54-31.1-31-11.37C93.93,49,76.34,75.46,52.21,93.12,52.42,78,51.49,47.49,18.9,54.56Z" transform="translate(-7.63 -23.77)"/><path id="path3882-6-1-33-9-9-7-9" d="M109.06,81.6C99.31,94.32,97.21,103.08,95.67,107c5.9-8.14,7.18-10.36,14.13-18.57a21.76,21.76,0,0,1,5-4.24Z" transform="translate(-7.63 -23.77)"/><path id="path3884-6-1-2-9-6-6-0" d="M131.32,109.89c-7.2,6-14.44,15-17.7,22.22,3.88-3.35,10.51-9.17,16.31-14.39a9.61,9.61,0,0,1,6.33-2.5c-2-1.42-3.4-3.44-4.94-5.33Z" transform="translate(-7.63 -23.77)"/><path id="path3886-8-5-4-3-7-0-8" class="cls-2" d="M52.17,159.52c12.38-3.64,15-5.86,20.67-8.52" transform="translate(-7.63 -23.77)"/><path id="path3888-4-4-9-8-4-7-4" class="cls-2" d="M44.22,151.09c12.29-7.28,17.51-11.93,25.25-17.53" transform="translate(-7.63 -23.77)"/><path id="path3890-1-8-5-1-8-9-7" class="cls-2" d="M35.05,140.75c7.71-6.09,10.77-9.68,15.28-14" transform="translate(-7.63 -23.77)"/></g></g></svg>