<svg id="Layer_1" data-name="Layer 1" xmlns="http://www.w3.org/2000/svg" viewBox="0 0 137.15 117.14"><defs><style>.cls-1{fill:#fff;}.cls-1,.cls-2{stroke:#000;stroke-linecap:round;stroke-linejoin:round;stroke-width:5px;}.cls-2{fill:none;}</style></defs><g id="g32290"><path id="path32292" class="cls-1" d="M31.1,21c-5.38-4.56-12.6-2.27-18.44,4.58C6.35,33,0,56.75,3.46,67.31c2.42,7.46,6.33,13.34,14.48,10" transform="translate(0 0)"/><path id="path32294" class="cls-1" d="M109.21,28.15c22.16-5.84,34.73,19.1,14.93,31.72,14.91,2.54,14.75,33.44-5.59,35.29.17,16.71-18.83,21.4-42.83,18.81a80.53,80.53,0,0,1-18.9-4.21c-17-6.23-30-16.05-38.51-32.73-5-9.74,0-34.25,5.3-44.65C34.07,12.25,66.85-.85,85.76,3.25,105.4,7.52,107.07,24.31,109.21,28.15Z" transform="translate(0 0)"/><path id="path32296" d="M123,62.28a9.73,9.73,0,0,1,2.85.73l.1-7.61a14.26,14.26,0,0,1-5.78,2.48C109.62,60,107,60,97,61.23c4.18.52,10.15,3.44,26,1.08Z" transform="translate(0 0)"/><path id="path32298" d="M120.12,97.43l-1.92-4.74c-7.79,0-21.14,1.26-26.31,1.4,7.23,3.11,18.83,3.72,28.23,3.34Z" transform="translate(0 0)"/><path id="path32300" class="cls-2" d="M49.19,76.53c-5.72-2.43-9.14-2.91-20.14-9.71" transform="translate(0 0)"/><path id="path32302" class="cls-2" d="M59.94,62.43c-9.28-2-16.26-2.81-29.91-7.12" transform="translate(0 0)"/><path id="path32304" class="cls-2" d="M52.24,43.55c-6.17-.42-10.92-.32-20.63-2" transform="translate(0 0)"/><path id="path32306" d="M109.43,30.65C85,30.83,82.67,21.77,73,13.77c9.67,5.8,16.7,13.26,37.85,11.8Z" transform="translate(0 0)"/></g></svg>