<svg id="Layer_1" data-name="Layer 1" xmlns="http://www.w3.org/2000/svg" viewBox="0 0 137.19 117.14"><defs><style>.cls-1{fill:#fff;}.cls-1,.cls-2{stroke:#000;stroke-linecap:round;stroke-linejoin:round;stroke-width:5px;}.cls-2{fill:none;}</style></defs><g id="g32290"><path id="path32292" class="cls-1" d="M154,119c8.15,3.34,12.06-2.54,14.48-10,3.42-10.56-2.89-34.32-9.2-41.78-5.84-6.85-13.06-9.14-18.44-4.58" transform="translate(-34.79 -41.69)"/><path id="path32294" class="cls-1" d="M86.18,44.94c18.91-4.1,51.69,9,62.15,29.13,5.29,10.4,10.34,34.91,5.3,44.65-8.55,16.68-21.56,26.5-38.51,32.73a80.63,80.63,0,0,1-18.9,4.21c-24,2.59-43-2.1-42.83-18.81C33.05,135,32.89,104.1,47.8,101.56,28,88.94,40.57,64,62.73,69.84,64.87,66,66.54,49.21,86.18,44.94Z" transform="translate(-34.79 -41.69)"/><path id="path32296" d="M48.91,104c15.85,2.36,21.82-.56,26-1.08-10-1.22-12.59-1.26-23.13-3.35A14.28,14.28,0,0,1,46,97.09l.1,7.61a9.73,9.73,0,0,1,2.85-.73Z" transform="translate(-34.79 -41.69)"/><path id="path32298" d="M51.82,139.12c9.4.38,21-.23,28.23-3.34-5.17-.14-18.52-1.36-26.31-1.4,0,0,0,0-1.92,4.74Z" transform="translate(-34.79 -41.69)"/><path id="path32300" class="cls-2" d="M142.89,108.51c-11,6.8-14.42,7.28-20.14,9.71" transform="translate(-34.79 -41.69)"/><path id="path32302" class="cls-2" d="M141.91,97c-13.65,4.31-20.63,5.09-29.91,7.12" transform="translate(-34.79 -41.69)"/><path id="path32304" class="cls-2" d="M140.33,83.24c-9.71,1.68-14.46,1.58-20.63,2" transform="translate(-34.79 -41.69)"/><path id="path32306" d="M61.11,67.26c21.15,1.46,28.18-6,37.85-11.8-9.69,8-12,17.06-36.45,16.88l-1.4-5.08Z" transform="translate(-34.79 -41.69)"/></g></svg>