<svg id="Layer_1" data-name="Layer 1" xmlns="http://www.w3.org/2000/svg" viewBox="0 0 183.96 129.48"><defs><style>.cls-1{fill:#fff;}.cls-1,.cls-2{stroke:#000;stroke-linecap:round;stroke-linejoin:round;stroke-width:5px;}.cls-2{fill:none;}</style></defs><g id="imagebot_10" data-name="imagebot 10"><path id="imagebot_18" data-name="imagebot 18" class="cls-1" d="M20.75,95.56c-8.69,1.4-11.17-5.22-11.82-13C8,71.46,19.55,49.76,27.39,43.92c7.24-5.34,14.8-5.93,19-.26" transform="translate(-6.38 -32.55)"/><path id="imagebot_17" data-name="imagebot 17" class="cls-1" d="M103.68,38.9c-17.49-8.3-52.4-3-67.15,14.23C29,62.05,18.52,84.76,21.21,95.4c4.53,18.19,15,30.71,30.06,40.63a80.23,80.23,0,0,0,17.45,8.4c20.61,6.73,38.68-3.88,46-8.58,13.13,5.13,28.31,12.89,42.23,21,20.82,12.18,27.88-21,8.26-32.18-9.18-5.25-16.24-10.72-37-21.95,13.18,1.21,32.46,2.07,44.91,4.81,20.53,4.51,20.3-27.69-4.93-32.68-17.18-3.4-30.91-3.25-47.31-6.42-1.21-4.22,1-20.95-17.17-29.57Z" transform="translate(-6.38 -32.55)"/><path id="imagebot_16" data-name="imagebot 16" d="M129.67,100.38c-15.84-2.44-24.53-.07-28.72.42,10,1.27,12.58,1.33,23.12,3.48a21.91,21.91,0,0,1,6.12,2.36Z" transform="translate(-6.38 -32.55)"/><path id="imagebot_15" data-name="imagebot 15" d="M115.54,133.49c-8.76-3.42-20.14-5.43-28-4.84,9.57,3.51,17.13,6.27,26.32,9.4,0,0,.74-2.3,1.67-4.56Z" transform="translate(-6.38 -32.55)"/><path id="imagebot_14" data-name="imagebot 14" class="cls-2" d="M34,87.91c9.17,9.12,12.39,10.36,17.41,14" transform="translate(-6.38 -32.55)"/><path id="imagebot_13" data-name="imagebot 13" class="cls-2" d="M37.57,76.89c12.32,7.29,18.93,9.65,27.51,13.73" transform="translate(-6.38 -32.55)"/><path id="imagebot_12" data-name="imagebot 12" class="cls-2" d="M42.24,63.87C51.31,67.72,56,68.7,61.87,70.52" transform="translate(-6.38 -32.55)"/><path id="imagebot_11" data-name="imagebot 11" d="M123,66.33c-20.94-3.39-26.08-12.27-34.18-20.1,7.62,10,7.78,19.34,31.66,24.73L123,66.33Z" transform="translate(-6.38 -32.55)"/></g></svg>