<svg id="Layer_1" data-name="Layer 1" xmlns="http://www.w3.org/2000/svg" viewBox="0 0 183.96 129.48"><defs><style>.cls-1{fill:#fff;}.cls-1,.cls-2{stroke:#000;stroke-linecap:round;stroke-linejoin:round;stroke-width:5px;}.cls-2{fill:none;}</style></defs><g id="imagebot_10" data-name="imagebot 10"><path id="imagebot_18" data-name="imagebot 18" class="cls-1" d="M152,43.66c4.2-5.67,11.75-5.08,19,.26,7.84,5.84,19.39,27.54,18.46,38.6-.66,7.82-3.14,14.44-11.82,13" transform="translate(-8.02 -32.55)"/><path id="imagebot_17" data-name="imagebot 17" class="cls-1" d="M94.68,38.9c-18.15,8.62-16,25.35-17.17,29.57-16.4,3.17-30.13,3-47.31,6.42-25.23,5-25.47,37.19-4.93,32.68,12.45-2.74,31.73-3.6,44.91-4.81-20.78,11.23-27.84,16.7-37,21.95-19.62,11.21-12.55,44.36,8.27,32.18,13.92-8.15,29.1-15.91,42.23-21,7.3,4.7,25.38,15.31,46,8.58a80.38,80.38,0,0,0,17.44-8.4c15.1-9.92,25.54-22.44,30.06-40.63,2.7-10.64-7.8-33.35-15.31-42.27C147.07,35.93,112.17,30.6,94.68,38.9Z" transform="translate(-8.02 -32.55)"/><path id="imagebot_16" data-name="imagebot 16" d="M68.16,106.64a22.07,22.07,0,0,1,6.13-2.36c10.53-2.15,13.1-2.21,23.12-3.48-4.19-.49-12.88-2.86-28.72-.42Z" transform="translate(-8.02 -32.55)"/><path id="imagebot_15" data-name="imagebot 15" d="M82.82,133.49c.93,2.26,1.66,4.54,1.67,4.56,9.19-3.13,16.75-5.89,26.31-9.4-7.85-.59-19.22,1.42-28,4.84Z" transform="translate(-8.02 -32.55)"/><path id="imagebot_14" data-name="imagebot 14" class="cls-2" d="M147,101.94c5-3.67,8.23-4.91,17.4-14" transform="translate(-8.02 -32.55)"/><path id="imagebot_13" data-name="imagebot 13" class="cls-2" d="M133.28,90.62c8.57-4.08,15.19-6.44,27.5-13.73" transform="translate(-8.02 -32.55)"/><path id="imagebot_12" data-name="imagebot 12" class="cls-2" d="M136.49,70.52c5.91-1.82,10.56-2.8,19.63-6.65" transform="translate(-8.02 -32.55)"/><path id="imagebot_11" data-name="imagebot 11" d="M75.34,66.33,77.86,71c23.88-5.39,24-14.76,31.66-24.73-8.1,7.83-13.25,16.71-34.18,20.1Z" transform="translate(-8.02 -32.55)"/></g></svg>